<?xml version="1.0" encoding="UTF-8"?>
<svg width="83px" height="56px" viewBox="0 0 83 56" version="1.1" xmlns="http://www.w3.org/2000/svg" xmlns:xlink="http://www.w3.org/1999/xlink">
    <!-- Generator: Sketch 52.5 (67469) - http://www.bohemiancoding.com/sketch -->
    <title>shift-logo-white</title>
    <desc>Created with Sketch.</desc>
    <g id="Page-1" stroke="none" stroke-width="1" fill="none" fill-rule="evenodd">
        <g id="shift-logo-white" fill="#FFFFFF" fill-rule="nonzero">
            <path d="M82.9315879,55.993 L0.00301818182,55.993 L0.00301818182,0 L82.9315879,0 L82.9315879,55.993 Z M2.93870303,53.068 L79.9928848,53.068 L79.9928848,2.921 L2.93870303,2.921 L2.93870303,53.068 Z M8.55453333,20.878 L11.1320606,18.534 C12.0274545,19.716 13.2528364,20.334 14.6603152,20.334 C15.8122545,20.334 16.5245455,19.934 16.5245455,19.262 C16.5245455,18.608 16.1593455,18.335 14.9520727,18.081 L13.3071636,17.717 C10.8020727,17.172 9.54147879,15.809 9.54147879,13.665 C9.54147879,11.212 11.5888121,9.722 14.8977455,9.722 C17.0728485,9.722 18.974303,10.394 20.2721212,11.666 L18.0970182,14.083 C17.2006182,13.102 15.8484727,12.502 14.6049818,12.502 C13.5989212,12.502 12.9781818,12.847 12.9781818,13.411 C12.9781818,14.011 13.3987152,14.301 14.7327515,14.592 L16.5969818,15.009 C19.0648485,15.554 20.1443515,16.754 20.1443515,18.916 C20.1443515,21.605 18.0054667,23.241 14.5104121,23.241 C11.9872121,23.24 9.794,22.386 8.55453333,20.878 Z M21.5468,9.757 L25.2400485,9.757 L25.2400485,15.408 C25.8245697,14.193 26.775297,13.593 28.0912242,13.593 C30.0661212,13.593 31.0711758,14.846 31.0711758,17.282 L31.0711758,22.933 L27.3789333,22.933 L27.3789333,17.663 C27.3789333,16.755 27.0499515,16.3 26.3728727,16.3 C25.6414667,16.3 25.2390424,16.881 25.2390424,17.954 L25.2390424,22.933 L21.5468,22.933 L21.5468,9.757 Z M32.9525091,9.702 L36.7181939,9.702 L36.7181939,12.755 L32.9525091,12.755 L32.9525091,9.702 Z M32.9887273,13.845 L36.6819758,13.845 L36.6819758,22.931 L32.9887273,22.931 L32.9887273,13.845 Z M45.0181939,16.171 L43.0060727,16.171 L43.0060727,22.931 L39.3138303,22.931 L39.3138303,16.171 L37.9606788,16.171 L37.9606788,13.845 L39.3138303,13.845 L39.3138303,13.3 C39.3138303,10.865 40.6850909,9.648 43.408497,9.648 C43.9499194,9.65367987 44.4893202,9.7146671 45.0181939,9.83 L45.0181939,12.356 C44.7410912,12.3011839 44.4596186,12.2710644 44.1771273,12.266 C43.4276121,12.266 43.0070788,12.647 43.0070788,13.302 L43.0070788,13.847 L45.0192,13.847 L45.0192,16.173 L45.0181939,16.171 Z M46.0212364,13.845 L47.5383758,13.845 L47.5383758,11.774 L51.2316242,10.393 L51.2316242,13.845 L53.3342909,13.845 L53.3342909,16.171 L51.2316242,16.171 L51.2316242,18.879 C51.2316242,19.715 51.7074909,20.187 52.5666667,20.187 C52.8236256,20.189613 53.0803656,20.1712176 53.3342909,20.132 L53.3342909,22.932 C52.5123394,23.059 52.0183636,23.114 51.5062788,23.114 C48.8180848,23.114 47.5393818,22.078 47.5393818,19.914 L47.5393818,16.171 L46.0212364,16.171 L46.0212364,13.845 Z M17.8927879,44.924 L17.8927879,46.832 L8.8976,46.832 L8.8976,44.924 L17.8927879,44.924 Z"></path>
        </g>
    </g>
</svg>